/* XPM */
static char * icon_xpm[] = {
"32 32 356 2",
"  	c None",
". 	c #29170A",
"+ 	c #825329",
"@ 	c #A27541",
"# 	c #826544",
"$ 	c #51351C",
"% 	c #C2884B",
"& 	c #DEA663",
"* 	c #E9B36E",
"= 	c #CF9D5E",
"- 	c #6D4826",
"; 	c #AF7A41",
"> 	c #DFA763",
", 	c #EAB46F",
"' 	c #E6AF68",
") 	c #D8A15D",
"! 	c #BE864B",
"~ 	c #402B17",
"{ 	c #372513",
"] 	c #A2703C",
"^ 	c #DA9F5B",
"/ 	c #E8B36D",
"( 	c #EBB56E",
"_ 	c #E0A863",
": 	c #D09958",
"< 	c #B57F47",
"[ 	c #9D6D41",
"} 	c #402D1B",
"| 	c #140C08",
"1 	c #9B6E3D",
"2 	c #C99151",
"3 	c #E7B16C",
"4 	c #EEB972",
"5 	c #E5AE67",
"6 	c #D9A25F",
"7 	c #C38C50",
"8 	c #A6713C",
"9 	c #8E6745",
"0 	c #67462F",
"a 	c #11110F",
"b 	c #4A423C",
"c 	c #35312D",
"d 	c #151312",
"e 	c #54391E",
"f 	c #E6A65D",
"g 	c #E2AA65",
"h 	c #EDB770",
"i 	c #EBB56F",
"j 	c #DDA55F",
"k 	c #CF9757",
"l 	c #B78046",
"m 	c #99683B",
"n 	c #79563B",
"o 	c #432D20",
"p 	c #000000",
"q 	c #3E3632",
"r 	c #5D554E",
"s 	c #695F59",
"t 	c #695F58",
"u 	c #5F5650",
"v 	c #4F4742",
"w 	c #12110F",
"x 	c #563519",
"y 	c #AD7B45",
"z 	c #E2A760",
"A 	c #EFBA76",
"B 	c #E3AC67",
"C 	c #D59D5B",
"D 	c #BE884C",
"E 	c #A5713E",
"F 	c #8C6542",
"G 	c #483426",
"H 	c #120D09",
"I 	c #1C1816",
"J 	c #534A45",
"K 	c #70665F",
"L 	c #726660",
"M 	c #70645E",
"N 	c #685E57",
"O 	c #675C55",
"P 	c #2C2724",
"Q 	c #151211",
"R 	c #1F150D",
"S 	c #86582F",
"T 	c #D59956",
"U 	c #E5AE66",
"V 	c #EFBB76",
"W 	c #ECB873",
"X 	c #DDA660",
"Y 	c #CD9656",
"Z 	c #B17A44",
"` 	c #99693C",
" .	c #6D503C",
"..	c #342821",
"+.	c #433C37",
"@.	c #685D56",
"#.	c #736861",
"$.	c #746A63",
"%.	c #716862",
"&.	c #726962",
"*.	c #726861",
"=.	c #6F635D",
"-.	c #6C615B",
";.	c #5A4F49",
">.	c #524237",
",.	c #855F38",
"'.	c #DCA25D",
").	c #E6AF69",
"!.	c #E4AC66",
"~.	c #D39C5A",
"{.	c #C0884D",
"].	c #A56E3C",
"^.	c #876245",
"/.	c #4E3C31",
"(.	c #100D0C",
"_.	c #161514",
":.	c #59514C",
"<.	c #7B716A",
"[.	c #796F69",
"}.	c #786F68",
"|.	c #786D68",
"1.	c #776D67",
"2.	c #756C65",
"3.	c #716962",
"4.	c #786E68",
"5.	c #766D66",
"6.	c #776E67",
"7.	c #6E635D",
"8.	c #554A44",
"9.	c #614631",
"0.	c #9F7241",
"a.	c #BA864C",
"b.	c #B27B43",
"c.	c #916035",
"d.	c #684D3A",
"e.	c #2F2823",
"f.	c #26221F",
"g.	c #797069",
"h.	c #7B726A",
"i.	c #7A7169",
"j.	c #746B64",
"k.	c #756B65",
"l.	c #766D67",
"m.	c #786E67",
"n.	c #796F68",
"o.	c #6D625D",
"p.	c #5A4E46",
"q.	c #3D2C21",
"r.	c #392310",
"s.	c #3F322A",
"t.	c #0D0B0A",
"u.	c #1A1816",
"v.	c #4E4642",
"w.	c #7A7069",
"x.	c #7E736C",
"y.	c #7F746D",
"z.	c #7F756D",
"A.	c #7C736B",
"B.	c #766C67",
"C.	c #7A716A",
"D.	c #7F756E",
"E.	c #786D66",
"F.	c #544A44",
"G.	c #1B1715",
"H.	c #2F2B28",
"I.	c #352F2C",
"J.	c #8C8079",
"K.	c #857972",
"L.	c #857A72",
"M.	c #827870",
"N.	c #7C726A",
"O.	c #665E58",
"P.	c #7C736C",
"Q.	c #7D726C",
"R.	c #7F736D",
"S.	c #827670",
"T.	c #877B74",
"U.	c #897D75",
"V.	c #151615",
"W.	c #322C29",
"X.	c #312B28",
"Y.	c #433D39",
"Z.	c #8D827D",
"`.	c #928781",
" +	c #8E827A",
".+	c #8B7F78",
"++	c #897E77",
"@+	c #7C706A",
"#+	c #726761",
"$+	c #786D67",
"%+	c #887D76",
"&+	c #847972",
"*+	c #827871",
"=+	c #857A73",
"-+	c #8A7F77",
";+	c #90857F",
">+	c #978C86",
",+	c #5D5550",
"'+	c #282624",
")+	c #322D2A",
"!+	c #36302C",
"~+	c #3A332E",
"{+	c #25201E",
"]+	c #3B3533",
"^+	c #8A817B",
"/+	c #A69A92",
"(+	c #958981",
"_+	c #8D837D",
":+	c #8F847E",
"<+	c #8C817A",
"[+	c #8D827B",
"}+	c #8C8279",
"|+	c #8D827A",
"1+	c #8C8179",
"2+	c #8B817A",
"3+	c #938882",
"4+	c #988B83",
"5+	c #A89D95",
"6+	c #5C5550",
"7+	c #4D4642",
"8+	c #211F1D",
"9+	c #37312E",
"0+	c #39322E",
"a+	c #38312D",
"b+	c #443320",
"c+	c #5D452A",
"d+	c #392D21",
"e+	c #6A615B",
"f+	c #9E958E",
"g+	c #A49992",
"h+	c #99908A",
"i+	c #978B85",
"j+	c #988D85",
"k+	c #948A83",
"l+	c #938984",
"m+	c #938A84",
"n+	c #9A8E87",
"o+	c #9B8F88",
"p+	c #554D47",
"q+	c #453C36",
"r+	c #4E4641",
"s+	c #252423",
"t+	c #191818",
"u+	c #3D3936",
"v+	c #60432B",
"w+	c #895F3B",
"x+	c #D6A46A",
"y+	c #D7A15C",
"z+	c #412E1F",
"A+	c #332E2A",
"B+	c #6F6864",
"C+	c #524B46",
"D+	c #A0958F",
"E+	c #9B8E87",
"F+	c #968B83",
"G+	c #A79B93",
"H+	c #807771",
"I+	c #5B524B",
"J+	c #483F38",
"K+	c #4A4039",
"L+	c #4B443F",
"M+	c #222120",
"N+	c #040100",
"O+	c #52311F",
"P+	c #613821",
"Q+	c #452312",
"R+	c #C48E53",
"S+	c #724E2A",
"T+	c #1A191A",
"U+	c #4F4843",
"V+	c #36312D",
"W+	c #221D1A",
"X+	c #756C67",
"Y+	c #A1968E",
"Z+	c #A59A93",
"`+	c #A69C95",
" @	c #877F7A",
".@	c #463D37",
"+@	c #48403A",
"@@	c #484039",
"#@	c #494039",
"$@	c #504741",
"%@	c #10110F",
"&@	c #573D2D",
"*@	c #623E2A",
"=@	c #623922",
"-@	c #815432",
";@	c #9D6F41",
">@	c #07090A",
",@	c #46403D",
"'@	c #3C3530",
")@	c #27211F",
"!@	c #26201E",
"~@	c #49423E",
"{@	c #99918C",
"]@	c #59524B",
"^@	c #463D36",
"/@	c #48413A",
"(@	c #49413A",
"_@	c #4A423B",
":@	c #2E2926",
"<@	c #4A362C",
"[@	c #654735",
"}@	c #623B25",
"|@	c #794B2D",
"1@	c #61442C",
"2@	c #131010",
"3@	c #48423E",
"4@	c #38332F",
"5@	c #282220",
"6@	c #292321",
"7@	c #241E1D",
"8@	c #3C3633",
"9@	c #49403A",
"0@	c #463F39",
"a@	c #37312D",
"b@	c #030202",
"c@	c #2D241D",
"d@	c #60473A",
"e@	c #604432",
"f@	c #312B27",
"g@	c #211D1B",
"h@	c #4D4640",
"i@	c #3A342F",
"j@	c #2E2925",
"k@	c #2E2927",
"l@	c #2F2927",
"m@	c #3F3A35",
"n@	c #4B423B",
"o@	c #48403B",
"p@	c #4B433D",
"q@	c #48413B",
"r@	c #23211E",
"s@	c #2A2827",
"t@	c #4B4540",
"u@	c #3D3734",
"v@	c #2D2724",
"w@	c #312C28",
"x@	c #3E3734",
"y@	c #4B433C",
"z@	c #484340",
"A@	c #2F2B27",
"B@	c #010101",
"C@	c #181716",
"D@	c #161413",
"E@	c #322E2B",
"F@	c #2F2A27",
"G@	c #4D453E",
"H@	c #201D1B",
"I@	c #262423",
"J@	c #2E2A28",
"K@	c #342F2B",
"L@	c #463F3C",
"M@	c #151514",
"N@	c #060605",
"O@	c #0A0A09",
"                                                                ",
"                                                                ",
"                                                                ",
"                                                      . + @ #   ",
"                                                    $ % & * =   ",
"                                                - ; > , ' ) ! ~ ",
"                                            { ] ^ / ( _ : < [ } ",
"                                        | 1 2 3 4 5 6 7 8 9 0   ",
"              a b c d                 e f g h i j k l m n o     ",
"          p q r s t u v w         x y z h A B C D E F G H       ",
"        I J K L L L M N O P Q R S T U V W X Y Z `  ...p         ",
"      +.@.#.$.$.%.&.*.M =.-.;.>.,.'.).!.~.{.].^./.(.            ",
"  _.:.<.[.}.|.1.2.3.2.4.5.6.5.7.8.9.0.a.b.c.d.e.p               ",
"f.s g.h.i.h.1.4.j.k.k.l.m.l.n.i.n.o.p.q.r.s.t.                  ",
"u.v.w.x.y.z.A.4.B.1.C.m.n.h.C.x.D.A.n.E.F.G.p                   ",
"u.H.I.<.J.K.L.M.N.O.P.z.i.Q.D.R.S.T.T.L.K.U.V.                  ",
"  W.X.Y.Z.`. +.+++@+#+$+%+&+*+=+-+.+J.;+>+,+'+                  ",
"  )+!+~+{+]+^+/+(+_+:+<+[+}+|+1+2+3+4+5+6+7+8+                  ",
"  9+0+a+b+c+d+e+f+g+h+i+j+k+l+`.m+n+o+p+q+r+s+                  ",
"  t+u+v+w+x+y+z+A+B+C+D+E+4+F+o+G+H+I+J+K+L+M+                  ",
"    N+O+P+Q+R+S+T+U+V+W+X+Y+Z+`+ @.@+@@@#@$@%@                  ",
"      &@*@=@-@;@>@,@'@)@!@~@{@]@^@#@/@(@_@:@                    ",
"      <@[@}@|@1@2@3@4@5@6@7@8@9@+@#@0@_@a@b@                    ",
"        c@d@e@f@g@h@i@j@k@l@m@n@o@p@q@r@b@                      ",
"          p p p s@t@u@v@X.w@x@y@(@z@A@B@                        ",
"                  C@D@E@c F@9+(@G@H@                            ",
"                      p I@J@K@L@M@                              ",
"                          N@O@                                  ",
"                                                                ",
"                                                                ",
"                                                                ",
"                                                                "};
